<?xml version="1.0" encoding="UTF-8"?>
<svg id="Layer_2" xmlns="http://www.w3.org/2000/svg" viewBox="0 0 343.44 111.91">
  <defs>
    <style>
      .cls-1 {
        fill: #ed1c24;
      }
    </style>
  </defs>
  <g id="_ثابت" data-name="ثابت">
    <path d="M22.53,18.4c3.18-1.61,4.94-4.38,4.94-7.93C27.47,4.61,22.63.82,15.14.82H0v2.07l.84.09c1.32.14,2.14.75,2.14,3.33v31.79c0,2.58-.82,3.19-2.14,3.33l-.84.09v2.08h15.9c10.1,0,15.9-4.75,15.9-13.04,0-6.13-3.33-10.43-9.26-12.17ZM7.9,3.4h6.36c5.42,0,8.29,2.44,8.29,7.06s-2.87,7.06-8.29,7.06h-6.36V3.4ZM14.96,41.02h-7.06v-20.91h7.06c7.57,0,11.57,3.61,11.57,10.46s-4,10.46-11.57,10.46Z"/>
    <path d="M62.4,33.83h-2.27l-.24.58c-2.34,5.62-3.9,6.61-10.47,6.61h-7.24V6.32c0-2.58.82-3.19,2.14-3.33l.84-.09V.82h-10.88v2.07l.84.09c1.32.14,2.14.75,2.14,3.33v31.79c0,2.58-.82,3.19-2.14,3.33l-.84.09v2.08h25.94l2.17-9.77Z"/>
    <path d="M62.04,43.6h8.54v-2.04l-.8-.12c-.61-.09-1-.28-1.17-.57-.18-.31-.28-.98.27-2.43l3.21-8.31c1.32-1.43,2.86-1.6,3.92-1.6s1.94.38,2.98.83c1.28.55,2.74,1.16,4.73,1.16,1.7,0,3.31-.66,4.59-1.84l3.76,9.76c.55,1.46.45,2.13.27,2.44-.17.29-.56.48-1.17.57l-.8.12v2.04h10.76v-1.99l-.74-.16c-1.6-.35-2.61-1.42-3.48-3.68L82.73.82h-5.11l1.41,3.68-12.79,33.26c-.87,2.26-1.88,3.33-3.48,3.68l-.74.16v1.99ZM80.45,8.23l6.95,17.99c-.92.76-2.05,1.12-3.45,1.12-1.04,0-1.94-.38-2.98-.82-1.28-.55-2.74-1.16-4.73-1.16-.88,0-1.75.18-2.56.52l6.77-17.65Z"/>
    <path d="M122.1,44.42c5.6,0,10.82-1.62,14.71-4.57l.24-.18,1.96-6.37.14-1.21h-1.9l-.24.58c-2.27,5.57-7.89,9.18-14.32,9.18-10.17,0-17-7.89-17-19.63,0-12.89,7.82-19.63,15.54-19.63,7.13,0,11.58,3.34,13.23,9.92l.18.71h2.14V2.05l-.23-.94h-1.4l-1.75,2.24c-3.7-2.75-8.16-3.35-11.35-3.35-12.93,0-21.62,8.93-21.62,22.21s8.71,22.21,21.68,22.21Z"/>
    <path d="M176.73,43.6v-2.05l-.81-.11c-3.85-.56-6.39-5.37-9.07-10.46-2.88-5.47-6.12-11.6-11.72-13.16l12.07-11.29c2.03-1.92,3.65-3.29,5.89-3.55l.83-.1V.82h-9.18v2l.75.15c.09.02.37.08.42.24.06.2-.08.84-1.05,1.78l-15.71,14.81V6.32c0-2.6.76-3.19,2.08-3.33l.84-.09V.82h-10.76v2.07l.84.09c1.32.14,2.08.73,2.08,3.33v31.79c0,2.58-.82,3.19-2.14,3.33l-.84.09v2.08h10.88v-2.08l-.84-.09c-1.32-.14-2.14-.75-2.14-3.33v-14.72l3.61-3.36c3.42.34,5.42,4.56,7.73,9.42,3.15,6.64,6.71,14.16,15.3,14.16h.94Z"/>
    <path d="M202.74,18.4c3.18-1.61,4.94-4.38,4.94-7.93,0-5.86-4.84-9.64-12.33-9.64h-15.14v2.07l.84.09c1.32.14,2.14.75,2.14,3.33v31.79c0,2.58-.82,3.19-2.14,3.33l-.84.09v2.08h15.9c10.1,0,15.9-4.75,15.9-13.04,0-6.13-3.33-10.43-9.26-12.17ZM188.1,3.4h6.36c5.42,0,8.29,2.44,8.29,7.06s-2.87,7.06-8.29,7.06h-6.36V3.4ZM195.17,41.02h-7.06v-20.91h7.06c7.57,0,11.57,3.61,11.57,10.46s-4,10.46-11.57,10.46Z"/>
    <path d="M236.47,44.42c13.32,0,22.27-8.93,22.27-22.21S249.79,0,236.47,0s-22.27,8.93-22.27,22.21,8.95,22.21,22.27,22.21ZM236.47,2.58c10.01,0,17,8.07,17,19.63s-6.99,19.63-17,19.63-17-8.07-17-19.63,6.99-19.63,17-19.63Z"/>
    <path d="M283.21,0c-13.32,0-22.27,8.93-22.27,22.21s8.95,22.21,22.27,22.21,22.27-8.93,22.27-22.21S296.53,0,283.21,0ZM283.21,41.84c-10.01,0-17-8.07-17-19.63s6.99-19.63,17-19.63,17,8.07,17,19.63-6.99,19.63-17,19.63Z"/>
    <path d="M342.64,41.44c-3.85-.56-6.39-5.37-9.07-10.46-2.88-5.47-6.12-11.6-11.72-13.16l12.07-11.29c2.03-1.92,3.65-3.29,5.89-3.55l.83-.1V.82h-9.18v2l.75.15c.09.02.37.08.42.24.06.2-.08.84-1.05,1.78l-15.71,14.81V6.32c0-2.6.76-3.19,2.08-3.33l.84-.09V.82h-10.76v2.07l.84.09c1.32.14,2.08.73,2.08,3.33v31.79c0,2.58-.82,3.19-2.14,3.33l-.84.09v2.08h10.88v-2.08l-.84-.09c-1.32-.14-2.14-.75-2.14-3.33v-14.72l3.61-3.36c3.42.34,5.42,4.56,7.73,9.42,3.15,6.64,6.71,14.16,15.3,14.16h.94v-2.05l-.81-.11Z"/>
    <path class="cls-1" d="M90.58,85.12c.76-6.21-1.08-20.27-1.08-20.27-.2-3.38,2.28-5.44,2.28-5.44-4-1.38-2.27-6.83-2.27-6.83,0,0-6.35,4.82-4.29,9.58l2.53,20.48s-9.31,5.71-22.21,5.7c-13.44-.01-7.91-12.97-7.91-12.97-5.53,9.51-4.02,19.64,7.35,19.79,13.1.15,22.21-5.01,22.21-5.01,2.21-1.31,3.38-5.03,3.38-5.03Z"/>
    <path class="cls-1" d="M72.95,67.58s2.35-2.62,2.35-3.93c0,0-6.14,1.37-8.63,8.4-1.18,3.38,4.89.77,4.68,3.11,0,1.11-6.28,4.75-6.28,4.75,0,0,7.86-.82,9.66-6.81,0,0,1.31-4-3.17-3.17-5.45,1.03,1.38-2.34,1.38-2.34Z"/>
    <polygon class="cls-1" points="151.8 103.17 156 107.25 160.07 103.18 156.01 99.11 151.8 103.17"/>
    <path class="cls-1" d="M154.93,78.57s4.89,5.18,4.54,7.38c0,0-1.45.41-10.34.4h-10s-13.79-.03-13.79-.03h-9.51c-.76-.01-4.07-.01-4.07-.01v.07c-.68-4-2.4-6.55-2.4-6.55,0,0-4.06-6.48-7.17-4.49-2.83,1.3-5.93,5.71-6.56,11.78,0,0-1.66,7.24,9.78,6.08,1.38-.14.62,0,1.79,0-.63,3.86-8.29,11.57-14.22,13.77-5.93,2.2-8.96-.49-8.96-.49,0,0,4.61,6.35,13.92,5.32,0,0,9.03-.68,13.19-15.77.14-.62.35-2.21.35-2.83,1.38,0,3.58-.06,4.34-.06h11.45s0,.01,0,.01h9.93s11.93.02,11.93.02h1.86s0-.02,0-.02c7.76-.09,10.55-.73,10.55-.73,1.73-2.48,2.14-6.61,2.14-6.61.49-7.51-5.98-14-5.98-14,0,0-2.97,6.07-2.76,6.75ZM103.77,86.44c-4.34.14-4.27-1.31-4.27-1.31.48-.55,2.77-6.62,6.14-.75.55.97.69,1.86.69,2.07-1.17-.07-1.93,0-2.55,0Z"/>
    <path class="cls-1" d="M207.88,52.59s-6.34,4.83-4.28,9.58l2.55,20.48s-9.31,5.72-22.2,5.72-7.93-12.96-7.93-12.96c-5.52,9.51-4,19.65,7.38,19.78,13.1.14,22.2-5.03,22.2-5.03,2.21-1.31,3.38-5.03,3.38-5.03.76-6.21-1.1-20.27-1.1-20.27-.21-3.38,2.27-5.45,2.27-5.45-4-1.38-2.27-6.83-2.27-6.83Z"/>
    <path class="cls-1" d="M183.47,79.96s7.86-.83,9.65-6.83c0,0,1.31-4-3.17-3.17-5.45,1.03,1.38-2.34,1.38-2.34,0,0,2.35-2.62,2.35-3.93,0,0-6.14,1.38-8.62,8.41-1.17,3.38,4.89.76,4.69,3.1,0,1.11-6.27,4.76-6.27,4.76Z"/>
    <path class="cls-1" d="M218.01,55.22c-3.72-2.07-3.31.69-2.34,5.51,1.1,5.45,6.41,4.76,6.41,4.76,8.13,6,7.93,18.96,7.93,18.96,0,0,3.17-9.31-.62-17.03-2.62-5.31-6.82-10.2-11.37-12.2Z"/>
    <path class="cls-1" d="M280.13,78.52s4.89,5.17,4.55,7.38c0,0-1.45.41-10.34.41h-22.75c-1.52-.04-5.94-.74-6-7.65-.07-9.72-1.52-23.99-1.52-23.99-.21-3.45-1.58-3.52-2.96-1.45-.89,2,.48,5.51-.89,14.41,0,0-4.21,21.44-27.3,26.2l7.58.62c18.55,1.52,21.58-23.1,21.58-23.1,0,0,.14,4.55.62,13.44.35,6.69,5.27,8.04,7.86,8.29v.05h.8c.45,0,.78,0,.78,0h24.06v-.02c7.76-.1,10.55-.74,10.55-.74,1.72-2.48,2.14-6.62,2.14-6.62.48-7.51-6-14-6-14,0,0-2.96,6.07-2.76,6.76Z"/>
    <polygon class="cls-1" points="277.03 103.13 281.23 107.2 285.3 103.13 281.23 99.06 277.03 103.13"/>
  </g>
</svg>